<svg width="51" height="51" viewBox="0 0 51 51" fill="none" xmlns="http://www.w3.org/2000/svg">
<path d="M8.5 8.5H21.25V21.25H8.5V8.5Z" stroke="white" stroke-width="2" stroke-linecap="round" stroke-linejoin="round"/>
<path d="M29.75 8.5H42.5V21.25H29.75V8.5Z" stroke="white" stroke-width="2" stroke-linecap="round" stroke-linejoin="round"/>
<path d="M8.5 29.75H21.25V42.5H8.5V29.75Z" stroke="white" stroke-width="2" stroke-linecap="round" stroke-linejoin="round"/>
<path d="M29.75 36.125C29.75 37.8158 30.4216 39.4373 31.6172 40.6328C32.8127 41.8284 34.4342 42.5 36.125 42.5C37.8158 42.5 39.4373 41.8284 40.6328 40.6328C41.8284 39.4373 42.5 37.8158 42.5 36.125C42.5 34.4342 41.8284 32.8127 40.6328 31.6172C39.4373 30.4216 37.8158 29.75 36.125 29.75C34.4342 29.75 32.8127 30.4216 31.6172 31.6172C30.4216 32.8127 29.75 34.4342 29.75 36.125Z" stroke="white" stroke-width="2" stroke-linecap="round" stroke-linejoin="round"/>
</svg>
